HIERARCHY
ROOT hip
{
  OFFSET 0 0 0
  CHANNELS 6 Xposition Yposition Zposition Zrotation Yrotation Xrotation
  JOINT abdomen
  {
    OFFSET 0 20.6881 -0.73152
    CHANNELS 3 Zrotation Xrotation Yrotation
    JOINT chest
    {
      OFFSET 0 11.7043 -0.48768
      CHANNELS 3 Zrotation Xrotation Yrotation
      JOINT neck
      {
        OFFSET 0 22.1894 -2.19456
        CHANNELS 3 Zrotation Xrotation Yrotation
        JOINT head
        {
          OFFSET -0.24384 7.07133 1.2192
          CHANNELS 3 Zrotation Xrotation Yrotation
          JOINT leftEye
          {
            OFFSET 4.14528 8.04674 8.04672
            CHANNELS 3 Zrotation Xrotation Yrotation
            End Site
            {
              OFFSET 1 0 0
            }
          }
          JOINT rightEye
          {
            OFFSET -3.6576 8.04674 8.04672
            CHANNELS 3 Zrotation Xrotation Yrotation
            End Site
            {
              OFFSET 1 0 0
            }
          }
        }
      }
      JOINT rCollar
      {
        OFFSET -2.68224 19.2634 -4.8768
        CHANNELS 3 Zrotation Xrotation Yrotation
        JOINT rShldr
        {
          OFFSET -8.77824 -1.95073 1.46304
          CHANNELS 3 Zrotation Xrotation Yrotation
          JOINT rForeArm
          {
            OFFSET -28.1742 -1.7115 0.48768
            CHANNELS 3 Zrotation Xrotation Yrotation
            JOINT rHand
            {
              OFFSET -22.5879 0.773209 7.07136
              CHANNELS 3 Zrotation Xrotation Yrotation
              JOINT rThumb1
              {
                OFFSET -1.2192 -0.487915 3.41376
                CHANNELS 3 Zrotation Xrotation Yrotation
                JOINT rThumb2
                {
                  OFFSET -3.37035 -0.52449 3.41376
                  CHANNELS 3 Zrotation Xrotation Yrotation
                  End Site
                  {
                    OFFSET -1.78271 -1.18214 1.43049
                  }
                }
              }
              JOINT rIndex1
              {
                OFFSET -7.75947 0.938293 5.60832
                CHANNELS 3 Zrotation Xrotation Yrotation
                JOINT rIndex2
                {
                  OFFSET -2.54057 -0.884171 1.56538
                  CHANNELS 3 Zrotation Xrotation Yrotation
                  End Site
                  {
                    OFFSET -1.62519 -0.234802 1.16502
                  }
                }
              }
              JOINT rMid1
              {
                OFFSET -8.24714 1.18213 3.41376
                CHANNELS 3 Zrotation Xrotation Yrotation
                JOINT rMid2
                {
                  OFFSET -3.10165 -0.590103 1.0647
                  CHANNELS 3 Zrotation Xrotation Yrotation
                  End Site
                  {
                    OFFSET -2.48547 -0.328903 0.83742
                  }
                }
              }
              JOINT rRing1
              {
                OFFSET -8.82822 0.546677 1.51678
                CHANNELS 3 Zrotation Xrotation Yrotation
                JOINT rRing2
                {
                  OFFSET -2.60934 -0.819778 -0.0198488
                  CHANNELS 3 Zrotation Xrotation Yrotation
                  End Site
                  {
                    OFFSET -2.33842 -0.294052 0.168128
                  }
                }
              }
              JOINT rPinky1
              {
                OFFSET -8.27202 -0.0477905 -0.4584
                CHANNELS 3 Zrotation Xrotation Yrotation
                JOINT rPinky2
                {
                  OFFSET -1.82734 -0.647385 -0.700984
                  CHANNELS 3 Zrotation Xrotation Yrotation
                  End Site
                  {
                    OFFSET -1.69225 -0.51767 -0.607171
                  }
                }
              }
            }
          }
        }
      }
      JOINT lCollar
      {
        OFFSET 2.68224 19.2634 -4.8768
        CHANNELS 3 Zrotation Xrotation Yrotation
        JOINT lShldr
        {
          OFFSET 8.77824 -1.95073 1.46304
          CHANNELS 3 Zrotation Xrotation Yrotation
          JOINT lForeArm
          {
            OFFSET 28.1742 -1.7115 0.48768
            CHANNELS 3 Zrotation Xrotation Yrotation
            JOINT lHand
            {
              OFFSET 22.5879 0.773209 7.07136
              CHANNELS 3 Zrotation Xrotation Yrotation
              JOINT lThumb1
              {
                OFFSET 1.2192 -0.487915 3.41376
                CHANNELS 3 Zrotation Xrotation Yrotation
                JOINT lThumb2
                {
                  OFFSET 3.37035 -0.52449 3.41376
                  CHANNELS 3 Zrotation Xrotation Yrotation
                  End Site
                  {
                    OFFSET 1.78271 -1.18214 1.43049
                  }
                }
              }
              JOINT lIndex1
              {
                OFFSET 7.75947 0.938293 5.60832
                CHANNELS 3 Zrotation Xrotation Yrotation
                JOINT lIndex2
                {
                  OFFSET 2.54057 -0.884171 1.56538
                  CHANNELS 3 Zrotation Xrotation Yrotation
                  End Site
                  {
                    OFFSET 1.62519 -0.234802 1.16502
                  }
                }
              }
              JOINT lMid1
              {
                OFFSET 8.24714 1.18213 3.41376
                CHANNELS 3 Zrotation Xrotation Yrotation
                JOINT lMid2
                {
                  OFFSET 3.10165 -0.590103 1.0647
                  CHANNELS 3 Zrotation Xrotation Yrotation
                  End Site
                  {
                    OFFSET 2.48547 -0.328903 0.83742
                  }
                }
              }
              JOINT lRing1
              {
                OFFSET 8.82822 0.546677 1.51678
                CHANNELS 3 Zrotation Xrotation Yrotation
                JOINT lRing2
                {
                  OFFSET 2.60934 -0.819778 -0.0198488
                  CHANNELS 3 Zrotation Xrotation Yrotation
                  End Site
                  {
                    OFFSET 2.33842 -0.294052 0.168128
                  }
                }
              }
              JOINT lPinky1
              {
                OFFSET 8.27202 -0.0477905 -0.4584
                CHANNELS 3 Zrotation Xrotation Yrotation
                JOINT lPinky2
                {
                  OFFSET 1.82734 -0.647385 -0.700984
                  CHANNELS 3 Zrotation Xrotation Yrotation
                  End Site
                  {
                    OFFSET 1.69225 -0.51767 -0.607171
                  }
                }
              }
            }
          }
        }
      }
    }
  }
  JOINT rButtock
  {
    OFFSET -8.77824 4.35084 1.2192
    CHANNELS 3 Zrotation Xrotation Yrotation
    JOINT rThigh
    {
      OFFSET 0 -1.70687 -2.19456
      CHANNELS 3 Zrotation Xrotation Yrotation
      JOINT rShin
      {
        OFFSET 0 -36.8199 0.73152
        CHANNELS 3 Zrotation Xrotation Yrotation
        JOINT rFoot
        {
          OFFSET 0.73152 -45.1104 -5.12064
          CHANNELS 3 Zrotation Xrotation Yrotation
          End Site
          {
            OFFSET -1.1221 -3.69964 12.103
          }
        }
      }
    }
  }
  JOINT lButtock
  {
    OFFSET 8.77824 4.35084 1.2192
    CHANNELS 3 Zrotation Xrotation Yrotation
    JOINT lThigh
    {
      OFFSET 0 -1.70687 -2.19456
      CHANNELS 3 Zrotation Xrotation Yrotation
      JOINT lShin
      {
        OFFSET 0 -36.8199 0.73152
        CHANNELS 3 Zrotation Xrotation Yrotation
        JOINT lFoot
        {
          OFFSET -0.73152 -45.1104 -5.12064
          CHANNELS 3 Zrotation Xrotation Yrotation
          End Site
          {
            OFFSET 1.1221 -3.69964 12.103
          }
        }
      }
    }
  }
}
MOTION
Frames:	7
Frame Time:	0.00833333
-29.6146 85.3006 -20.7951 -421.749 84.2744 -422.952 3.51688 3.89453 -0.65272 -2.47583 1.02494 -0.21239 2.62844 8.20165 0.313901 1.34571 -12.4345 0.64872 -0.0 0.0 0.0 -0.0 0.0 0.0 5.36045e-14 -2.2852e-12 -7.69836e-14 81.6403 24.8128 1.70148 -13.2536 -6.36768 24.064 -0.00355565 1.70112 0.239147 -1.26129e-09 4.5891e-10 2.0785e-09 -2.17212e-09 7.9297e-10 3.59685e-09 -1.26128e-09 4.58912e-10 2.0785e-09 7.73091 5.47488 0.417314 -1.26129e-09 4.58912e-10 2.0785e-09 2.90554 0.965183 0.102902 -1.26128e-09 4.58912e-10 2.07851e-09 10.2786 0.731801 0.0259123 -1.2613e-09 4.58911e-10 2.07851e-09 2.22167 -0.733487 -0.20892 5.36434e-14 -2.2852e-12 -7.72958e-14 -77.8219 22.0814 -2.21076 12.0419 -5.47811 -21.6908 0.35197 -16.6377 2.407 -1.24622e-09 3.05442e-10 -2.96068e-09 -2.12416e-09 5.21741e-10 -5.12946e-09 -1.24623e-09 3.05442e-10 -2.96069e-09 -7.73091 5.47488 -0.417314 -1.24622e-09 3.0544e-10 -2.96069e-09 -2.90554 0.965183 -0.102902 -1.24623e-09 3.05441e-10 -2.96069e-09 -10.2786 0.731801 -0.0259123 -1.24622e-09 3.05442e-10 -2.96069e-09 -2.22167 -0.733487 0.20892 -2.03217e-16 0.0 -3.88251e-19 11.2658 -4.62264 1.07717 -0.144636 24.7163 0.445566 -3.51324 -16.8981 -8.25152 2.03217e-16 0.0 3.88251e-19 10.6599 -29.0828 8.6081 0.711784 52.8502 -1.00187 2.15944 -8.09394 7.84419
-29.9345 85.2738 -20.8076 -421.997 84.322 -423.241 3.55288 3.83459 -0.672193 -2.43841 1.02538 -0.215579 2.61972 8.20508 0.306033 1.34955 -12.4224 0.63568 -0.0 0.0 0.0 -0.0 0.0 0.0 1.58838e-14 -2.20417e-12 -1.21457e-13 81.6607 24.7099 1.60602 -13.2085 -6.33323 23.9748 -0.00364094 1.72267 0.242178 -7.85257e-10 6.46158e-10 2.23242e-09 -1.34913e-09 1.11813e-09 3.86128e-09 -7.85249e-10 6.46159e-10 2.23242e-09 7.73091 5.47488 0.417314 -7.85253e-10 6.46158e-10 2.23242e-09 2.90554 0.965183 0.102902 -7.85245e-10 6.46158e-10 2.23243e-09 10.2786 0.731801 0.0259123 -7.85266e-10 6.46158e-10 2.23243e-09 2.22167 -0.733487 -0.20892 1.59228e-14 -2.20418e-12 -1.21805e-13 -77.8881 21.9474 -2.15934 11.9608 -5.42113 -21.534 0.345588 -16.4907 2.3845 -7.97723e-10 8.91064e-11 -3.22278e-09 -1.34644e-09 1.4934e-10 -5.57731e-09 -7.97732e-10 8.91052e-11 -3.22278e-09 -7.73091 5.47488 -0.417314 -7.97725e-10 8.91041e-11 -3.22278e-09 -2.90554 0.965183 -0.102902 -7.97738e-10 8.91053e-11 -3.22278e-09 -10.2786 0.731801 -0.0259123 -7.9772e-10 8.91068e-11 -3.22278e-09 -2.22167 -0.733487 0.20892 -2.03217e-16 0.0 -3.88251e-19 11.2799 -4.95728 1.04901 -0.144537 25.0022 0.456202 -3.50654 -16.9026 -8.23459 2.03217e-16 0.0 3.88251e-19 10.7097 -28.6807 8.5331 0.760747 54.059 -1.07662 2.14597 -8.10574 7.67301
-30.2548 85.2505 -20.8255 -422.125 84.366 -423.407 3.57721 3.77338 -0.68048 -2.40147 1.03132 -0.215542 2.61524 8.21228 0.30092 1.35202 -12.44 0.627234 -0.0 0.0 0.0 -0.0 0.0 0.0 -7.79171e-15 -1.71687e-12 -1.2205e-13 81.6821 24.607 1.51697 -13.1644 -6.29956 23.8875 -0.00382186 1.76624 0.248308 -4.13968e-10 6.99752e-10 2.11189e-09 -7.08032e-10 1.21167e-09 3.65163e-09 -4.1396e-10 6.99751e-10 2.11188e-09 7.73091 5.47488 0.417314 -4.13964e-10 6.9975e-10 2.11189e-09 2.90554 0.965183 0.102902 -4.13957e-10 6.9975e-10 2.11189e-09 10.2786 0.731801 0.0259123 -4.13977e-10 6.99751e-10 2.1119e-09 2.22167 -0.733487 -0.20892 -7.78851e-15 -1.71688e-12 -1.22392e-13 -77.9476 21.8108 -2.11431 11.8867 -5.3694 -21.3909 0.340192 -16.3655 2.36536 -4.14874e-10 -6.01644e-12 -3.04168e-09 -6.86756e-10 -1.32559e-11 -5.26021e-09 -4.14882e-10 -6.01788e-12 -3.04168e-09 -7.73091 5.47488 -0.417314 -4.14876e-10 -6.01929e-12 -3.04169e-09 -2.90554 0.965183 -0.102902 -4.14888e-10 -6.0176e-12 -3.04168e-09 -10.2786 0.731801 -0.0259123 -4.1487e-10 -6.01586e-12 -3.04168e-09 -2.22167 -0.733487 0.20892 -2.03217e-16 0.0 -3.88251e-19 11.2879 -5.28978 1.03444 -0.144612 25.2719 0.465577 -3.49607 -16.8913 -8.2137 2.03217e-16 0.0 3.88251e-19 10.7578 -28.2288 8.48029 0.810309 55.2053 -1.15075 2.119 -8.1217 7.44871
-30.5734 85.2318 -20.8437 -422.074 84.4056 -423.396 3.59097 3.71127 -0.679147 -2.36457 1.04105 -0.212735 2.61338 8.223 0.297774 1.3537 -12.4825 0.622101 -0.0 0.0 0.0 -0.0 0.0 0.0 -2.8747e-14 -9.24243e-13 -9.99297e-14 81.7045 24.508 1.43159 -13.1211 -6.26669 23.802 -0.00408325 1.82553 0.256649 -2.45815e-11 6.78068e-10 1.754e-09 -3.64475e-11 1.17487e-09 3.03161e-09 -2.45739e-11 6.78067e-10 1.754e-09 7.73091 5.47488 0.417314 -2.45775e-11 6.78066e-10 1.754e-09 2.90554 0.965183 0.102902 -2.45735e-11 6.78066e-10 1.75401e-09 10.2786 0.731801 0.0259123 -2.45891e-11 6.78068e-10 1.75402e-09 2.22167 -0.733487 -0.20892 -2.8803e-14 -9.24243e-13 -1.0024e-13 -78.0024 21.669 -2.07363 11.8186 -5.32218 -21.2593 0.335421 -16.2545 2.3484 3.47655e-12 -6.76712e-11 -2.50915e-09 3.06869e-11 -1.17556e-10 -4.33558e-09 3.47e-12 -6.76725e-11 -2.50915e-09 -7.73091 5.47488 -0.417314 3.47677e-12 -6.76744e-11 -2.50916e-09 -2.90554 0.965183 -0.102902 3.46542e-12 -6.76721e-11 -2.50916e-09 -10.2786 0.731801 -0.0259123 3.48255e-12 -6.76705e-11 -2.50916e-09 -2.22167 -0.733487 0.20892 -2.03217e-16 0.0 -3.88251e-19 11.2894 -5.61805 1.03123 -0.144796 25.5261 0.473694 -3.48157 -16.8654 -8.18749 2.03217e-16 0.0 3.88251e-19 10.8032 -27.7292 8.44486 0.860026 56.2951 -1.22408 2.0733 -8.12822 7.15027
-30.8932 85.2169 -20.8622 -421.925 84.4443 -423.279 3.59705 3.64931 -0.671079 -2.32956 1.05384 -0.207937 2.61206 8.23779 0.296519 1.35473 -12.5404 0.620405 -0.0 0.0 0.0 -0.0 0.0 0.0 -4.26667e-14 -2.01431e-13 -7.34777e-14 81.7291 24.4097 1.3502 -13.0781 -6.23413 23.7171 -0.00439244 1.8924 0.266058 3.78754e-10 6.42309e-10 1.10989e-09 6.58272e-10 1.11358e-09 1.91676e-09 3.78761e-10 6.42306e-10 1.10988e-09 7.73091 5.47488 0.417314 3.78758e-10 6.42306e-10 1.10989e-09 2.90554 0.965183 0.102902 3.78759e-10 6.42306e-10 1.10989e-09 10.2786 0.731801 0.0259123 3.78748e-10 6.42308e-10 1.1099e-09 2.22167 -0.733487 -0.20892 -4.27887e-14 -2.01425e-13 -7.37511e-14 -78.0529 21.5326 -2.0332 11.7571 -5.27978 -21.1407 0.331298 -16.158 2.33368 4.19872e-10 -1.69994e-10 -1.65515e-09 7.41915e-10 -2.9234e-10 -2.85558e-09 4.19867e-10 -1.69995e-10 -1.65514e-09 -7.73091 5.47488 -0.417314 4.19874e-10 -1.69997e-10 -1.65516e-09 -2.90554 0.965183 -0.102902 4.19864e-10 -1.69994e-10 -1.65515e-09 -10.2786 0.731801 -0.0259123 4.19879e-10 -1.69993e-10 -1.65516e-09 -2.22167 -0.733487 0.20892 -2.03217e-16 0.0 -3.88251e-19 11.2859 -5.92524 1.04531 -0.144893 25.7428 0.480308 -3.46698 -16.8213 -8.16792 2.03217e-16 0.0 3.88251e-19 10.8412 -27.1733 8.4238 0.909031 57.3021 -1.29518 2.01697 -8.09229 6.83168
-31.2152 85.2169 -20.882 -421.772 84.4842 -423.154 3.59835 3.58855 -0.659159 -2.29828 1.06901 -0.201927 2.6092 8.25719 0.29708 1.35527 -12.6042 0.622271 -0.0 0.0 0.0 -0.0 0.0 0.0 -4.52353e-14 7.64277e-14 -6.10766e-14 81.7569 24.3091 1.27314 -13.0348 -6.2014 23.6316 -0.00470784 1.95874 0.275392 7.9189e-10 6.53674e-10 1.30657e-10 1.36878e-09 1.13365e-09 2.22582e-10 7.91896e-10 6.53671e-10 1.30648e-10 7.73091 5.47488 0.417314 7.91894e-10 6.53671e-10 1.3066e-10 2.90554 0.965183 0.102902 7.91894e-10 6.5367e-10 1.3066e-10 10.2786 0.731801 0.0259123 7.91885e-10 6.53674e-10 1.30673e-10 2.22167 -0.733487 -0.20892 -4.54136e-14 7.64366e-14 -6.13251e-14 -78.0997 21.4125 -1.98889 11.703 -5.24252 -21.0365 0.327851 -16.0764 2.32124 7.96855e-10 -3.8712e-10 -5.09601e-10 1.38295e-09 -6.66387e-10 -8.72391e-10 7.96851e-10 -3.8712e-10 -5.09595e-10 -7.73091 5.47488 -0.417314 7.96858e-10 -3.87123e-10 -5.09617e-10 -2.90554 0.965183 -0.102902 7.96849e-10 -3.8712e-10 -5.09608e-10 -10.2786 0.731801 -0.0259123 7.96863e-10 -3.87118e-10 -5.0962e-10 -2.22167 -0.733487 0.20892 -2.03217e-16 0.0 -3.88251e-19 11.2794 -6.19448 1.08263 -0.144694 25.8999 0.485168 -3.45624 -16.7556 -8.16693 2.03217e-16 0.0 3.88251e-19 10.8676 -26.5526 8.4142 0.95605 58.2 -1.36221 1.95878 -7.98099 6.547
-31.5307 85.2309 -20.9032 -421.418 84.522 -422.834 3.59482 3.53112 -0.639763 -2.27169 1.08702 -0.193575 2.60431 8.28393 0.300337 1.35608 -12.6815 0.62942 -0.0 0.0 0.0 -0.0 0.0 0.0 -2.91508e-14 -4.20155e-13 -7.5384e-14 81.7885 24.2051 1.20102 -12.9907 -6.16821 23.5448 -0.00503009 2.02531 0.284759 1.31673e-09 7.71531e-10 -1.6558e-09 2.26953e-09 1.33778e-09 -2.86741e-09 1.31674e-09 7.71528e-10 -1.65581e-09 7.73091 5.47488 0.417314 1.31673e-09 7.71527e-10 -1.6558e-09 2.90554 0.965183 0.102902 1.31674e-09 7.71527e-10 -1.6558e-09 10.2786 0.731801 0.0259123 1.31673e-09 7.7153e-10 -1.65579e-09 2.22167 -0.733487 -0.20892 -2.93809e-14 -4.20146e-13 -7.56279e-14 -78.1425 21.3115 -1.93757 11.6583 -5.21184 -20.9507 0.325311 -16.0157 2.312 1.18946e-09 -8.65853e-10 1.38387e-09 2.04527e-09 -1.49383e-09 2.40301e-09 1.18946e-09 -8.65853e-10 1.38388e-09 -7.73091 5.47488 -0.417314 1.18946e-09 -8.65854e-10 1.38386e-09 -2.90554 0.965183 -0.102902 1.18946e-09 -8.65852e-10 1.38386e-09 -10.2786 0.731801 -0.0259123 1.18947e-09 -8.65851e-10 1.38385e-09 -2.22167 -0.733487 0.20892 -2.03217e-16 0.0 -3.88251e-19 11.2719 -6.41612 1.1518 -0.144072 25.9857 0.488006 -3.45014 -16.6657 -8.18788 2.03217e-16 0.0 3.88251e-19 10.8862 -25.8573 8.42863 0.999639 58.9875 -1.42374 1.90364 -7.7856 6.31898
